<svg id="Layer_1" data-name="Layer 1" xmlns="http://www.w3.org/2000/svg" viewBox="0 0 192 192"><defs><style>.cls-1{fill:#7796a8;}.cls-2{fill:#fff;}</style></defs><title>madisonisland_favicon</title><rect class="cls-1" width="192" height="192" rx="12" ry="12"/><path class="cls-2" d="M148,105.69a32.06,32.06,0,0,0-5.39-34.17L101.31,87.62l16.84-22.51L116.64,64,98.07,88.74l0,0,5.68-30.35-1.88-.35L96.69,85.52l-16-41.17a32,32,0,0,0-18.45,57.74,17.14,17.14,0,0,0-5.68,28.76l28-10.9,0,.08.07,0,10.77,27.65A17.15,17.15,0,0,0,112,124.15a32.07,32.07,0,0,0,36-18.46Zm0,0"/></svg>